<mxfile host="65bd71144e">
    <diagram id="ZRgNgkGBJunc0q0rqTIc" name="Page-1">
        <mxGraphModel dx="1096" dy="486" grid="1" gridSize="10" guides="1" tooltips="1" connect="1" arrows="1" fold="1" page="1" pageScale="1" pageWidth="1654" pageHeight="2336" math="0" shadow="0">
            <root>
                <mxCell id="0"/>
                <mxCell id="1" parent="0"/>
                <mxCell id="2" value="" style="rounded=0;whiteSpace=wrap;html=1;" parent="1" vertex="1">
                    <mxGeometry x="270" y="100" width="260" height="480" as="geometry"/>
                </mxCell>
                <mxCell id="3" value="ECStack(调用栈)" style="text;html=1;align=center;verticalAlign=middle;resizable=0;points=[];autosize=1;strokeColor=none;" parent="1" vertex="1">
                    <mxGeometry x="270" y="70" width="110" height="20" as="geometry"/>
                </mxCell>
                <mxCell id="4" value="" style="rounded=0;whiteSpace=wrap;html=1;" parent="1" vertex="1">
                    <mxGeometry x="310" y="440" width="190" height="120" as="geometry"/>
                </mxCell>
                <mxCell id="5" value="GEC(global exection context)" style="text;html=1;align=center;verticalAlign=middle;resizable=0;points=[];autosize=1;strokeColor=none;" parent="1" vertex="1">
                    <mxGeometry x="310" y="410" width="170" height="20" as="geometry"/>
                </mxCell>
                <mxCell id="8" value="VO(variable Object): GO" style="rounded=0;whiteSpace=wrap;html=1;align=left;" parent="1" vertex="1">
                    <mxGeometry x="320" y="440" width="170" height="60" as="geometry"/>
                </mxCell>
                <mxCell id="9" value="开始执行代码&lt;br&gt;foo()" style="rounded=0;whiteSpace=wrap;html=1;align=left;" parent="1" vertex="1">
                    <mxGeometry x="320" y="500" width="170" height="60" as="geometry"/>
                </mxCell>
                <mxCell id="10" value="{&lt;br&gt;name: &quot;why&quot;&lt;br&gt;foo: 0xa00&lt;br&gt;}" style="rounded=1;whiteSpace=wrap;html=1;align=left;" parent="1" vertex="1">
                    <mxGeometry x="795" y="252" width="120" height="60" as="geometry"/>
                </mxCell>
                <mxCell id="11" value="GlobalObject" style="text;html=1;align=center;verticalAlign=middle;resizable=0;points=[];autosize=1;strokeColor=none;" parent="1" vertex="1">
                    <mxGeometry x="810" y="222" width="80" height="20" as="geometry"/>
                </mxCell>
                <mxCell id="26" style="edgeStyle=none;html=1;exitX=1;exitY=0.5;exitDx=0;exitDy=0;entryX=-0.005;entryY=0.442;entryDx=0;entryDy=0;entryPerimeter=0;" parent="1" source="12" target="24" edge="1">
                    <mxGeometry relative="1" as="geometry"/>
                </mxCell>
                <mxCell id="12" value="[[scope]]: parent scope&lt;br&gt;函数的执行体(代码块)" style="rounded=1;whiteSpace=wrap;html=1;align=left;" parent="1" vertex="1">
                    <mxGeometry x="790" y="430" width="130" height="70" as="geometry"/>
                </mxCell>
                <mxCell id="13" value="存储函数空间(foo) 0xa00" style="text;html=1;align=center;verticalAlign=middle;resizable=0;points=[];autosize=1;strokeColor=none;" parent="1" vertex="1">
                    <mxGeometry x="775" y="392" width="150" height="20" as="geometry"/>
                </mxCell>
                <mxCell id="14" value="" style="endArrow=classic;html=1;" parent="1" source="10" edge="1">
                    <mxGeometry width="50" height="50" relative="1" as="geometry">
                        <mxPoint x="930" y="282" as="sourcePoint"/>
                        <mxPoint x="850" y="421" as="targetPoint"/>
                    </mxGeometry>
                </mxCell>
                <mxCell id="15" value="" style="rounded=0;whiteSpace=wrap;html=1;" parent="1" vertex="1">
                    <mxGeometry x="300" y="230" width="190" height="140" as="geometry"/>
                </mxCell>
                <mxCell id="16" value="函数执行上下文(FEC)&lt;br&gt;Functional Execution Context" style="text;html=1;align=center;verticalAlign=middle;resizable=0;points=[];autosize=1;strokeColor=none;" parent="1" vertex="1">
                    <mxGeometry x="300" y="190" width="170" height="30" as="geometry"/>
                </mxCell>
                <mxCell id="17" value="VO(variable Object): AO&lt;br&gt;scope chain: AO + GO" style="rounded=0;whiteSpace=wrap;html=1;align=left;" parent="1" vertex="1">
                    <mxGeometry x="310" y="230" width="180" height="60" as="geometry"/>
                </mxCell>
                <mxCell id="18" value="{&lt;br&gt;num: 123&lt;br&gt;m: 10&lt;br&gt;n: 20&lt;br&gt;}" style="rounded=1;whiteSpace=wrap;html=1;align=left;" parent="1" vertex="1">
                    <mxGeometry x="600" y="252" width="130" height="90" as="geometry"/>
                </mxCell>
                <mxCell id="19" value="AO(Activation Object)" style="text;html=1;align=center;verticalAlign=middle;resizable=0;points=[];autosize=1;strokeColor=none;" parent="1" vertex="1">
                    <mxGeometry x="590" y="222" width="130" height="20" as="geometry"/>
                </mxCell>
                <mxCell id="20" value="开始执行函数代码&lt;br&gt;console.log(name)" style="rounded=0;whiteSpace=wrap;html=1;align=left;" parent="1" vertex="1">
                    <mxGeometry x="310" y="290" width="170" height="60" as="geometry"/>
                </mxCell>
                <mxCell id="21" value="当我们查找一个变量时,真实的查找路径是沿着作用域链来查找" style="text;html=1;align=center;verticalAlign=middle;resizable=0;points=[];autosize=1;strokeColor=none;" parent="1" vertex="1">
                    <mxGeometry x="610" y="40" width="340" height="20" as="geometry"/>
                </mxCell>
                <mxCell id="22" value="&lt;font style=&quot;font-size: 14px&quot;&gt;当解析（编译）遇见函数的定义时，会在GO里生成一个属性foo,&lt;br&gt;同时，当发现是一个函数的时候会创建一个&lt;b&gt;&lt;i&gt;函数对象（存储函数空间）（下图foo（0xa00））&lt;/i&gt;&lt;/b&gt;&lt;br&gt;foo的值不像基本数据类型那样会被赋值为undefined,而是会存入函数对象的地址&lt;br&gt;即此时Go&amp;nbsp;的foo&amp;nbsp;属性引用着&amp;nbsp;这个函数对象&lt;br&gt;这个根据函数定义创建的函数对象会包含一个父级作用域&lt;br&gt;（这也是为什么会有作用域链的原因），&lt;br&gt;还会包含这个函数的执行体（我估计这就是为什么函数在哪里执行，他的this就是哪的原因）&lt;br&gt;（我估计这也是为什么会有闭包）&lt;br&gt;&lt;/font&gt;" style="text;html=1;align=left;verticalAlign=middle;resizable=0;points=[];autosize=1;strokeColor=none;fillColor=none;" parent="1" vertex="1">
                    <mxGeometry x="1015" y="230" width="590" height="130" as="geometry"/>
                </mxCell>
                <mxCell id="23" value="" style="shape=image;verticalLabelPosition=bottom;labelBackgroundColor=#ffffff;verticalAlign=top;aspect=fixed;imageAspect=0;image=data:image/png,iVBORw0KGgoAAAANSUhEUgAAAKsAAADMCAYAAAAMGVP7AAAe7klEQVR4nO2de1RUV57vP3NNxyRCQQABNUTQIirRJJhBwYmJFLCEjNLaIdLase8aI2JwTNsziVymIllWUs3COIkdG6KQZNbqmNjYJHoxS3CAwul0C5FJsI0hKsXDxgcoIhQYNRPXvX/U61TxqhcFJ9mftWotzvntvc+uw7d+57f32Y+/mzdv3v9DMCrcunWbe+6ZONbV+MFwV29v71jX4QfN7du3xroKPxj+11hXQCBwFCFWgWwQYhXIBiHWccKTqmUc+tfF/BPwT2lrOJTxME86lFPBtow1vPmIq1c25j+UFgaE8ea/ruFDlcLVwkYVIVaBbBBiHSf8qasXDN00A83dBrhu4E9eubKBC9fhRncv0Mt1A3R2GbxyZWf5uwcffNC5ftb5BcQug0bNJgxDnssgPPcZQs32lo+p21ds/HuqhofXB9KuOUmAOU3PCRrezuX2iBfPZ63ucU7nXWFxziL8AXqPU7RyDR3mJFlV5KYpLTlaS8P5oNCat6s2mJg4BT21JTRFpRPjZ6A+7xHKK431TjmoJsbPlFlfgmZDtlO3x+OEPMyHzwVQ9e+f8R/S848s5tDCbt4sbuepjGXc//lnkLSYGQC0839N6Z9ULeNfZrbyZvHXFvEPdk4OOO9ZvzxJBzMJmG89NTE4BFpOWsSreO4xujXJ1GmSqdN8TMeMZwifLy1kJlG5S7n5rsnuv4ApNvbhULI8J5jPVOFoVCW0+i0iKctsy2ftY1+gUYUbP6V6ItKqiJbkjZlcjqZUj39cOkGV4RzWK4hckgFAdJGamKslpvxa6ien86I2w+lb5FE6DXTixwMhwyebkfQo1/d9xIp//5QvDGEkmuLOP33dyg1FBE9Z8it4aqaCG83tshIquBQGFHP5RD+hUeZ/Yjz+D0GrrtiSwrBP4nUpprsFJgXH25TS8WkanZeGtg+Ngfq8RBoAyOa0Hu6fZq5LNh9IPWHhF7QSTGiSJO8fTfbe41QWSsvNZ65Sz2FL/mLKK/X4R8VbnxDDsP53RzhyxP5zgO0qB7/WkBgfzYDRy5oaYU8G+dmECi2Vn/Jap/E7/lezgUkBpsdD59dUnVcw+2FToykkjNmKdqp04/NRPxx3uZLp9qlG+tY/hgIwTI0niEb0lyQJ5hcQu2ymTZ6+LulRM91fWo8M+5L52pWKDEJ0URvLldIzBrqGSiwlKYz7UbJc18Zy6fneKw5d991/fpp3Ha6lMxi4cF3BvBB4MiiAzvPwQAg0Y44zR+Y/zrXz04VhPKn7Gh6OgIY/2YYUMsElsXKphq6ebALmw+3gKDhXYI03p2p4eNlMOj5Nps0kSMVzFYR5pLrDE6o9xXKlnsMqs+fNZ60uxYkSpHmdY/3vjvCzGfZn+6nfuYpXdS4UKKG520BiUBhPzYSvyrqZ97CCmQEKOs8ZAAe6mU610ZL0KE+FtMNMOFMmP68KroqVGnrObSIoOAP/hzppf7vGzt7PTXOLZ34BUTPsPeso0nuFy6Y/o4vSiXDUs1bW0JSlZnlRPg0uNKpGz7OaUXD/9TZe64Q3Ux9lHgaudzqat51DDY/yL6lPcuP6X/mFw/nGFy53Xd2uOMqNBc8Q0X0Sm9/ppVzaW3yIWF9BbG4FsU9co7XF/Yo6Qoe6nFa/RWzQtZGra2Px1eO0Opy7mPKVxkZVril/rq5t7BtYGLu1JkU/CufagXa+uh7GDEUvF5wQnbGhpaDzXPuo1XO0cb7rSiBPhuoCkxHipcCPAgXbUh+Fhr/KVqjgcswqkAcKtmUs43EFcP4zVsiwu0qKCAMEskGEAQLZIMQqkA1CrALZIMQqkA1CrALZIMQqkA1CrALZIMQqkA1CrALZIMQqkA1CrALZIMQqkA1CrALZIMQqkA1CrALZIMQqkA1CrALZIMQqkA1CrALZIMQqkA1CrALZIMQqkA1CrALZIMQqkA3uiTVrMzrdTtPnVfKSRs7iFJkGzh+4gfeWRrtN9VEDO7x2PYEzuLF8UCJ706bTVPoSmYUjp3aahBt89bPvOL4jiGJ725LV5G+JRtF6lBd+XW1jSnlrB6kRpgNDA7t+uZ+zZuO6TbyTOt2aeED+ifyhro9XDtygadWkgdcVjCmue9akEKZwnobRECp32J95DeruZ7WtFpml3sY76+DsYGtZrttEKkd5YcVWXlhRRD3RbHkrwWp/v8BkM9kDl5Kvtlkmm+JXgyjpusaL2+94/msJ3MJ1zxoZgM9QtqRfUJYTbbXrK1BtqLKYE7Svoo7ztRwP8M6ZN1hEIK+/OsG23CWrWRd0nBd+WU3KW9EM4P0CXrAc6PnL2T5iZgUzC6zeVWK/fA1mDVL9rR8HkrL1BjtQsHWo7yjwOk571gTtq8YYNW06MJ1V5pi1KNGUIpG9OdFcLn0JleolVKoKmpTJlGlNHixrM+q4bg6oTPbS80Sm2ca7Ox7twfDNPQMfw8f2k2332HedBOZG9HH2L/qBpup7ON3bw+OZHrqUwCM47Vmr1dupBmPjKg0OqHazR2JP0P4Dkb0NaC2esorM0jnokhaSACQmTae/do81T+FuDjy2k6eXKKFSD9whLAiu/NXOqzrLktWsi/GlpWy/jVedpd7GlhiTV289yhvHBss8gfYumDv1DuBmPQQeY3TWZ73ayXD+7/LFQbyZhe8J9hvG7BAJvLwlGuqLeON9W8tZ7WuWUGGWehvv/D7YthFmounqfaRP/h4h1vHD6PSzTg5B0qwhYVqAjXnKNGmjRsn0yVLrXVxxbMecIUjg5UNLmdF6lGztcD8KOPsXPQZFAAM2WQEiJ3+L4apYa3k84XGxVh/T0+8XzSrLrn+JrIrzpanyQ6rRU9XYh09cChvN5qwUFvqd54jaLCzjIzh4qiutcatQ7bu0BiPlp9EoWs9QPsBiCkUuCa86nnB95eshYlZgQG9Af+0eUtVWL2fbG9DH53nbyamU5M80cP5nULLUvjVuEqP99UzitIlHJbSUbeWN9xloH0rUCTf4ausdygdcXzCWjNNl2u+w/8BF5n4zjXn23VdeYEfh30i5OjbXFgzNOB0bMIHVewMh9jr7E0ZO7UkytneRHhTI20Ko445xKlagehLzPrmbRZneHRvw89i7KRGvWscl4zQMEAgGMn49q0Bgh+hIFIwaWVlZw9oLC50bBSXEKhhVdr+3e9Dzm5/f7HRZIgwQyAYhVoFscC8MmF9A7LKZpoN+Wt9No/OS+5Vyl4nJpUQv8KHj02TavvT21RPZq0sm0nRk//bOfYwvTIKrHyRhrweLHYYdhX/j8b+6d703dl1k9QygZTIPbLnbpTLcEGsG4ctmjoEg4gl5MZt7/zwWQhyZjUXJRNoNNvckOwovsqgrhOleEioYB6N/tbWL/fqgATM3HOL5PlbPULA/1ZeX3aiH62KdGsYkmmkfh4K5XZFGXcVYXNk4gqypcnSESqaB9Jn+lCydODrlD0X1JOYp73A+8wYZ1c6/MMmc8j/Q4uOWUMEdsYYGMnDICEAG4blLuSkJCRTPVRDWlc/XFTXG0CHqJA1dS4leYBzq0nfCZDNjE15Y7YrnKogyj2JZVkHoMuzyZxCe+wyhwFBhiU0ZNmniCXlxE5Qe5d715jKaadRswuDwTQknYMixuLbhAb0NaFd+aB33O8JUILjD/oQe9J88aDO4RjF5CrHPZtChP01E9CJ+cs+9/M+tm9SVvkdn8zeEzJxDzIr/zdk/H6Xpc+M9Tsz8P3zbe53T1WXEPpvBzb7rhMyYTU9HOwD+oWGcq63m1H9+Yr3Q3kkcT7jIzzMnUexFry7FabGa40EzUbkmF9byMXX7HPzNzXiGaD6mTlNsEmYaiooaoyjmFxC7LITWd5MHCM2wL5m6YcOAYto0xbSZfjCD1T0q4AQNmlxum7/L+gJuWgTpQ8T6pbS+m0zdJeN1wpLjbX9Ig2EvtLSd6NIAzptGpSnJO5jMlNo9qNR6QEnewY2oizqp3lCFdCqQcS6aUdhl2jZrvJtwi7l+/pQPIpS7fvITlDFP8VXVITpbzvDEmixmxjxJZ/M3w9fblNc3IJivj33KnCeS6Whu5Nve6wRHPGSXcgK6b+7jlUdvA1727Cac7g24XZFGnSaZuk+bMXqeZOOxo0IF6DlBgzn9lyfpIIR7pwLEE/LETPpOFIxCQy2DKQt86PizUagAtysKaO2ZScB8a6qOT82etoaec/34BikHKcuOyg9JNc83wzgB0jj/zDR8csCYXT05hQ30K+ewEetUoAM2U4HO4xO10DqIXXkHRe8Emoaogr7+v2j6vAbD1cv0dF7gPr/7Hb4zF75p4Ptbt/ju1k2a6/80ZLriS3dD0PdOj9VQBt3E0OX+wKBx1nWl5F5/uHFlBE/mMv3c7Bilokeit3tIoQEjTgXKmPqdhyvkAvoJGPzuWEOZEViwcB8Xyi7y919NI+r1H5xY9dzsGc3yfbg3VHps/HF4Bb8A23+y/VT2EaYCFV9yrbvHo4zg3e058flzPJA6jf+ed5HGV9xfh2GUxGoVxcTkUkmDZiSMj97QZQUohklzsxtCo5x9GBXT3QKhT2gsEdfE5KWE9pzg8mj3aBR+QxPTedo8HR0leUnT6a8tZw8jTQUy4aRXkzLhrru41xQWLPp5Jv6hYS59jYyp30HXXU73Bui77kUR5L5YR2FsQDFtnz5GrLm13vIxjS3P4OjtuV2RRgOlROda+57sewsM+z6mI/cZYnOfsbXb9SKwvoIISYvfsC+ZxucqJGU306ixxrCjRxWZKtir24hOZzqlrzA1tjDGvEBZjrlhZnqZIB3nUX0PpzMvkrJ9EludGBje2fwNrQ3HeSgugYfiEujpaLe0+p3jDqo536KvDnIhr2cQ41nlxJBz07x07YQJvO7EwPSsrCx2v7ebzFe62RbkY/PmavPzm50edTXOYlbBsOxVUNLcQ3rh6D8LbDAvkrfXtRkUey//BIK+x90FboRYZcbWrGkcD+qk2otLG+145hpXPnHxVSvAe77s77rOtrKLXNjleq+GGM8qOyawetWDXr3i1iz3r/fylmnef93667VuLZci+BERM7uKJ96YM6jtz2ecL89psc6ZM4cN/zYOxgEKxj8fnBvGOJxtcETMKpANQqwC2SDEKpANQqwSQrWnyNW1GT9F+R4t27JiuM0q4aPA1AKqkjSonMiiml3Kodnxo1YlTyHEKqFD/QgaVThFtY4Pt3aUavV2VKqX0Nb2ebxsC74aDsWG8HldLrqRU1vQnTlKR1Q2e6aOWs08ghDrD4Z4tLELoLEAtdO/h2I2Vp4gNLbA7bdMo8kYvRTIIOWgmhjLFBA9h1WJNACQz1pdOuatrOg9TtHKNXRYbI9zOu8Ki3MW4T/ADmRVkZtmHTDdU6vlbbX1JWF0URvLLWYD9XmPUC5dG3Y4bMp2Mu9IOLnDzYA0U9NYyAl+c8Z2LHCo9hSrOM31uEVEoOdwKSxPU4K+BM2GbGvCvlzKL1aQMjuevWdGazyxe4yBZzUJ9WoJGlW46WMWagYpB9O5v1ZrOq+lnkVssIkflSzPCeYzVTgaVQmtfotIsgyty2dtWjD1eeGWsqVCDdWeYvnk4xSZbEW1EJNTxSCbFA0k6SNelJZdesXxvCMywg43Sb/gV3HweZ7RfkCPcQ6XRMyZYTPpb68Z9PHvHzeXrjwt9b1KliddoSjvOD3KxwfUfW97Mz5h8U7Fu97E+2LNSifGT89h6a/azvaZRWDFlBfa31gD9XlmcWdzWg/3T5OObVUQuWSwsa75JMUpaK20euEO9W7qe5XMHX5JJgBCl8yF2t1WT1pY4nDekRhpWkvCEiU+vXqqTNfec/K83WDueB5UQIdhCI+oL7fUW/r9B9B3jX7fQJfGzHoDr4s1dFow9F7h8lAJhrONSDYf5B2HOLWpVW/v+Qx0OTrM3Y4pkxX4W8ptI1cnDWM8wDDTWqovdoOfkkTTXmEbH5sO+m8ky+MrCRx8qrFz9LXTQQgPeqKsUcDrMWvHxSsQNUwCv2CmgPXXHxmMUzNPKtfwtsmLhGpPsUFXBZYwQ0FQJGCJM5UEOSE4+/jXo5imtZgFa5zW0m08aOqmn+kszNmJLgeMs2al07T1XOuDQHfr4BtGKJ00jGKHhTt4Pwwo/IJWv0Ws0g7yqC78glaULLbYMkhJUtJTW2ISm3N0XLwiOTKGDBFJH2GehhWqTSGi9ziVDowBbjipxz9uMynD7vy9hO1/OMKRIwfY7kTgN9K0lo3PRkPtHlM8K5k1a6GGvxkgVOFmX6lvID591xyeY+VtxqA3IJsPVLBWpyZXpzadM/cGDGLTl6Bx1JvZ9QSYW+xmoTdsCIeiNjbo2iTXNcdw9j0U6eTq0q2t5sJENFSRm9NGTA6S/IkO/JCM6wQstJSdjE6XbG3NjzCtZc8fG3g6RzIlBrCuSWBkb3szz8amkXmmBlfXoDA20kqd6qP1Jk5Payn6zVQx6srLbCzaydNXbRd421i0k1VIu7fi0SZl83B7Pitc6Xry1XAoKZDyTza5LPbRRrwUGPfY78AIkEi0EvqvtknO1aCuOwFRm9A63UDKYE/SAjrqxq9QQcwUkAHG1VvK7MKAQZfS7MtlRV0BVbEaVJWOv3JVzV5KaGM+K8b5A1OEAQLZIMIAgWwQYhXIBiFWgWwQYhXIBiFWgWwQYhXIBtHP6lUSePnQUmYYGtj1y/2cHcxmOjLUF5Gt9eSWRPJHeFZvsW4T7xyazbX6wYY0KVn3+6UE1RfxwoqtvLCrAWI28PI6r9dyXONlz2rcVCLonHS9VftzxuMI87jAnhM0vG1eQ9W6+UV3lHnXFUc3izNOiemqDSYmTkFPbQlNUenE+Hl4esqgJPDykm52rdgP6m3E2JvXLSVGcZ4ysyc9tp9jP40mdZ500KDAy57VtKnEQ/GS/T6U3OvfT9cpo3gnJqdBqWlTDU0+rSxAmWw79C10mXGrojpNMo0tPkSoHF0FW0nM5HI0pXr849IJqgznsH6omQWepJo3Bjz2rcyaEgCtZyg3H6u3kRoBBAYza5RrJie8HrPerjhKx4Kl+E/F6A3nP0Zoy1HqLpntm+i0pK6h59wmIoKUgGQkUcvHFs9saGyGJ8KYCA6sYG2g/o/ZEFkFpnGsU4ocq/eSVw+wdaHPgPPNB59ms6fGY6/bxDup08HQwK5dsG5LADNgSJH/2BiDBlYx3S3PEPZIPJ2XalBEzaSjcZPVPFXDw+sX2G4I12JbQkejRB1fbqLOC7scHtu+imOjeYGIpbwT2MCuFQVGca7bhMLQbf/Vf9SMSW+AobEZ3yfimVihJGBGM937zJYMwtcvgBP51FWYw4JSosduGXsLo+lZz17uBropk4QKs6YEwLUzwqtKGJuuqy9P0rHsMSbOD2TSiVLa7MyWfbCmalAu8BngWceCUfWs75+hJXUpqW8lUP7raiCB1BhfWspE40rKGPWzFnP5RCnRy6D13Rq780uJtuzL2kzriX58x4FndQ8l636/gRjLfknRbDkUbYxNf7mfs1Tzxgp4+dBS3jlk3MazpWwrb7w/ZhUel4jxrALZIF4KCGSDEKtANgixCmSDEKtANrjUG3Dfffd5uh4CwYgIzyqQDS73s3777beerIdAMCLCswpkgxCrQDaIaS3eYslq8rdEY37jOvB1qpjWMhLCs3oFJevWKTm7a6tx2krZeWakbmPdEoldTGsZkR/RtBZY9HPjxjn3+d2Pf2gYAOdqqzn1n5948ksOgp73f/ma9dA0yipwBnAMMa3FQX5k01pg6qxH+Lb3OqXbN3Hp7CkemBONYvIUz3w9FxHTWhzjRzatBXo62jn+B+MqpFdbzxEwLYJ7Ff4Yrg6/7YYnB1+nvGWajm0/BFBMaxkWMa3FQTw1+NroNc9TtsJuAqGY1jIiYlqLg3jCs85Sb2NLDNTvKrA88kFMa3EUMa3FQdz1rFahvsb79gWJaS0OIaa1eAWj+ABituwgZovptJjW4hQuTWvZ8nqPGBsg8DripYBANgixCmSDyzGrGIAt8DbCswpkg0ueVTSuBGOB8KwC2SDEKpANQqwC2SDEKpANQqwC2SDEKpANQqwC2SDEKpANQqwC2SDEKpANQqwC2SDEKpANQqwC2SDEKpANQqwC2SDEKpANQqwC2SDEKpANQqwC2SDEKpANQqwC2SDEKpANQqwSQrWnyNW1GT9F+R4tO0H7KjrdTuOnKNGjZdswtYCqJA2q0buCU6hml3JodvzICR1AiFVCh/oRNKpwimoNHi+7Wr0dleoltLV9Hi/bgq+GQ7EhfF6Xi270ruIUujNH6YjKZs9U98sSYv3BEI82dgE0FqAexd+D8xSzsfIEobEFZLpZ0hitz5pBykE1MX7mYz2HVYk0AJDPWl06EWZT73GKVq6hw2J7nNN5V1icswj/AXYgq4rcNKXlSj21Wt5WW5emji5qY7nFbKA+7xHKKx2stk3ZTuYdiaRfUJYTjWVtbX0Fqg1VFnOC9lXUcb62eaRppqaxkBP85kyNbRoX7llraTgfFFrzdtUGExOnoKe2hKaodGL8pN/d7n+pL0GzIdu2Cn25lF+sIGV2PHsH1M9xxsCzmr7c1RI0qnDTxyzUDFIOpnN/rdZ0Xks9i9hgEz8qWZ4TzGeqcDSqElr9FpGUZbblszYtmPq8cEvZUqGGak+xfPJxiky2olqIyaki2pFqJ33Ei9KyS684nndEEtmbE83l0pdQqV5CpaqgSZlMmdYkoKRf8Ks4+DzPaD+gB3ob0ErEnBk2k/72miEe/yPcs8e+sP4vSvVEpEm/l5KYyeVoSvX4x6UTVBnOYb2CyCXGHXKii6T/Sy31k9N5UTtw95y97c34hMW7FUt737NmpRPjp+fwyuyhbRaBFVNeGE9kzuNEg0nQBurzzOLO5rQ+ncXTMgBzHuONLK+0X+g/n6Q4Ba2lVo/Sod5N/UE1c7OgoXD4aocumQu1u62etLCE+iTH8o5EgvYfiOxtQGspp4rM0jnokhaSgB6WKPHp1VNluvaek+dZlRZAJOZdsuJ5UAEd7bZeKzIykt/+dh7cagQg9sgRo+FWIyw7wupl1rSrzTa+g1t2aR+Yx5EHvoNbjcQuOwI0wgMrST6y0vg38zhiyd8I0Su5558nsuN3v7NeoO8a/b6BRILL8bTXxRo6LRh6TzPkRj69V4a2jUg2H+SF8WKOmlydGtvwAsBAV5NrJU+ZrMBfaS7XSqvLdbXjaueQ27NVX+xGHackMQmqK2HjY9NBX8EeSwolgb4D8zU1NfH001+xVpdClyRkiS5qY/FVa3hkGxqBNcTJt+aNrCI36QpFK9cwxZz/WDwvmkMLKb3H+b1UqAB97XQQxYO+gIsxtdfF2nHxCkQNk8AvmClgjacigwfejOGoXMPbpn9KqPYUG3RVYBGsgqBIwBJnKgnyG6yQwbGPfz3K5BCk+wkmTAsAuo0HTd30M52FOTvR5QCc54CqSpJZz7U+CHThsqHaUyxX2rcZUpwowd4hDIFvGKF00uBG48/7MWvhF7T6LWLVIHENhV/QipLFFlsGKUlKempLRr4Zg9Bx8YrkKJvTeohI+ohQ05lQbQoRvcepdOAx3nBSj3/cZlKShku1hO1/OMKRIwfY7kRwVn1MT79fNKsscWQiq+J8aar8kGpg47PRULvHFM++hEq1W+JVAWr4mwFCFS72Z0qeZtFFksbtSFTW0NSrZLkjfdK+gfj0XcPFBxswJr0B2XyggrU66SPV/OscxKYvQeOoN7Nr1ZofZ2ahN2wIh6I2NujMmxnpOawyx7D2PRTp5OrSra3bwkQ0VJGb00ZMDpL8DngVlOQd3MhCS9nJ6HTJ1tZ85YekAmU5O9GlGVP01+4h1fQj2vPHBp7O2YjOJtg7zwGJaPe2N/NsbBqZZ2rY68CtMtOhLqdVl265Jz21x2lVznUwdzHlK4GDauO9MjHYE8jYACx1q//Xpd1aNvybA7v6CjzGxqKdPH11D6lqvc25VUi7t+LRJmXzcHs+K9zoHhoVfDUcSgqk/JNNTv2Q7BEvBcY9SqZPtj+XSLQS+q9Kt7urQV13AqI2oR2ksTV2ZLAnaQEdde4JFcbspYDAcfTkFDZQZhcG9NfaeloA+nJZUVdAVawGVeX4eOWqmr2U0MZ8VnjgYSzCAIFsEGGAQDY4HQb4+Pjw0dsPDWlf8+I5tyokEAyF02L985lEdr+3e1Db5uc3A0KsgtFBhAEC2SDEKpANLok185VuLpRd5MK+b90eUCsQOIpLYt37egAPpE5jf9d1fvXKHU/XSSAYFLfCgJe/UqAIEmIVeAcRswpkgxCrQDa4J9aWCRhm3OYND1VGIBgO98Racx9Rb03gH8sucmHXdx6qkkAwOO6J9fk+LjwPv02dxgNb7vZQlQSCwXE/Zu26y+1xigKBI4gGlkA2CLEKZINbYn1jngFD1wRP1UUgGBaXprVkvtLNtgU3AQX7twixCryDS2Ld+3qAaFQJvI5LYjUOshYIvIvTEwYFgrFC9AYIZIMQq0A2CLEKZIMQq0A2CLEKZIMQq0A2CLEKZIMQq0A2CLEKZIMQq0A2CLEKZIMQq0A2/H/ToURM0WIo5wAAAABJRU5ErkJggg==;" parent="1" vertex="1">
                    <mxGeometry x="1051" y="10" width="177.7" height="212" as="geometry"/>
                </mxCell>
                <mxCell id="24" value="执行时：当执行到foo()时，会在VO(此时指向&lt;b&gt;&lt;i&gt;GO&lt;/i&gt;&lt;/b&gt;)中找到foo，根据地址拿到函数对象，&lt;br&gt;随后根据函数的执行体 创建一个函数执行上下文（&lt;b&gt;&lt;i&gt;Functional Execution Contex&lt;/i&gt;&lt;/b&gt;t）&lt;b&gt;&lt;i&gt;FEC&lt;/i&gt;&lt;/b&gt;，&lt;br&gt;并把函数的执行上下文压入调用栈，当执行完就会销毁&lt;br&gt;FEC中包含三部分内容&lt;br&gt;第一部分：在解析函数成为AST树结构时,会创建一个Activation Object(AO)：&lt;br&gt;&lt;span style=&quot;white-space: pre&quot;&gt;&#9;&lt;/span&gt;&lt;span style=&quot;white-space: pre&quot;&gt;&#9;&lt;/span&gt;&amp;nbsp;AO中包含形参,arguments,函数定义和指向函数对象,定义的变量； &lt;br&gt;第二部分：作用域链：由VO(在函数中就是AO对象)和父级VO组成,查找时会一层层查找；&lt;br&gt;第三部分：this绑定的值：这个我们后续会详细解析；&lt;br&gt;函数执行上下文也会创建一个VO(variable object),&lt;br&gt;函数执行上下文中的VO指向的是&lt;span style=&quot;font-size: 12px ; text-align: center&quot;&gt;AO(Activation Object)-------活跃对象&lt;/span&gt;,用来保存函数内部的变量&lt;br&gt;它与GO的区别是他在函数执行完之后会被销毁" style="text;html=1;align=left;verticalAlign=middle;resizable=0;points=[];autosize=1;strokeColor=none;fillColor=none;fontSize=14;" parent="1" vertex="1">
                    <mxGeometry x="1015" y="385" width="580" height="190" as="geometry"/>
                </mxCell>
                <mxCell id="25" value="" style="endArrow=classic;html=1;" parent="1" target="22" edge="1">
                    <mxGeometry width="50" height="50" relative="1" as="geometry">
                        <mxPoint x="910" y="290" as="sourcePoint"/>
                        <mxPoint x="960" y="240" as="targetPoint"/>
                        <Array as="points">
                            <mxPoint x="950" y="290"/>
                        </Array>
                    </mxGeometry>
                </mxCell>
            </root>
        </mxGraphModel>
    </diagram>
</mxfile>